# xmcd
#
# Track frame offsets: 
#        150
#        12725
#        28865
#        44119
#        56206
#        71949
#        85101
#        97701
#        111909
#        126409
#        138312
#        151759
#        163624
#        178815
#        196751
#        215518
#        235446
#        249041
#        262499
#        278098
#        299103
#        318234
#        339805
#
# Disc length: 4627 seconds
#
# Revision: 1
# Processed by: cddbd v1.5.2PL0 Copyright (c) Steve Scherf et al.
# Submitted via: ExactAudioCopyFreeDBPlugin 1.0
#
DISCID=62121117
DTITLE=Various Artist - BackBeats: Windy City Soul
DYEAR=2009
DGENRE=Soul
TTITLE0=The Windy City Orchestra - Windy City Theme
TTITLE1=Tyrone Davis - What Goes Up (Must Come Down)
TTITLE2=Barbara Acklin - I'll Bake Me A Man
TTITLE3=Mr T - Love Uprising
TTITLE4=Ginji James - Honey Babe
TTITLE5=The Promises - ( I Can Feel These Vibrations) The Love Is Real
TTITLE6=Mighy Doug Haines - I'll Be Right Here
TTITLE7=Lyn Roman - Stop! I Don't Need No Sympathy
TTITLE8=Sidney Joe Qualis - Run To Me
TTITLE9=Barbara Acklin - I Did It
TTITLE10=Major Lance - Sweeter As The Days Go By
TTITLE11=Otis Leavill - I Love You
TTITLE12=Windy City - Fool Or Your Man
TTITLE13=Eddie McLoyd - Once You Fall In Love
TTITLE14=Gene Chandler - Let Me Make Love To You
TTITLE15=Tyrone Davis - Turning Point
TTITLE16=Jackie Wilson - It Only Happens (When I Look At You)
TTITLE17=The Chi-Lites - Stoned Out Of My Mind
TTITLE18=The Dells - Your Song
TTITLE19=The Impressions - All I Want To Do Is Make Love To You
TTITLE20=Gene Chandler - Doesn't She Have A Friend For Me
TTITLE21=The Chi-Lites - You Don't Have To Go
TTITLE22=Windy City - Windy City Theme [Vocal]
EXTD=
EXTT0=
EXTT1=
EXTT2=
EXTT3=
EXTT4=
EXTT5=
EXTT6=
EXTT7=
EXTT8=
EXTT9=
EXTT10=
EXTT11=
EXTT12=
EXTT13=
EXTT14=
EXTT15=
EXTT16=
EXTT17=
EXTT18=
EXTT19=
EXTT20=
EXTT21=
EXTT22=
PLAYORDER=
